<svg xmlns="http://www.w3.org/2000/svg" viewBox="0 0 512 512">
  <defs>
    <linearGradient id="bg" x1="64" y1="48" x2="448" y2="464" gradientUnits="userSpaceOnUse">
      <stop offset="0" stop-color="#1DB954"/>
      <stop offset="1" stop-color="#0B5E34"/>
    </linearGradient>
    <linearGradient id="panel" x1="120" y1="96" x2="392" y2="416" gradientUnits="userSpaceOnUse">
      <stop offset="0" stop-color="#1a1a1a"/>
      <stop offset="1" stop-color="#111111"/>
    </linearGradient>
  </defs>
  <rect x="32" y="32" width="448" height="448" rx="96" fill="url(#bg)"/>
  <rect x="104" y="88" width="304" height="336" rx="40" fill="url(#panel)" stroke="#ffffff" stroke-opacity=".08" stroke-width="6"/>
  <path d="M172 180c34-14 69-21 112-21 46 0 86 8 121 23" fill="none" stroke="#1DB954" stroke-width="18" stroke-linecap="round"/>
  <path d="M172 236c34-14 69-21 112-21 46 0 86 8 121 23" fill="none" stroke="#9df3bf" stroke-opacity=".9" stroke-width="18" stroke-linecap="round"/>
  <path d="M172 292c34-14 69-21 112-21 46 0 86 8 121 23" fill="none" stroke="#ffffff" stroke-opacity=".92" stroke-width="18" stroke-linecap="round"/>
  <circle cx="186" cy="350" r="18" fill="#1DB954"/>
  <circle cx="236" cy="350" r="18" fill="#9df3bf"/>
  <circle cx="286" cy="350" r="18" fill="#ffffff"/>
  <path d="M152 136h208" stroke="#ffffff" stroke-opacity=".18" stroke-width="10" stroke-linecap="round"/>
</svg>
